<mxfile host="app.diagrams.net" agent="Mozilla/5.0 (X11; Linux x86_64) AppleWebKit/537.36 (KHTML, like Gecko) Chrome/133.0.0.0 Safari/537.36 OPR/118.0.0.0" version="27.1.6">
  <diagram name="Page-1" id="Tot1et4MsFqJhJqhtgmE">
    <mxGraphModel dx="1278" dy="2408" grid="1" gridSize="10" guides="1" tooltips="1" connect="1" arrows="1" fold="1" page="1" pageScale="1" pageWidth="850" pageHeight="1100" math="0" shadow="0">
      <root>
        <mxCell id="0" />
        <mxCell id="1" parent="0" />
        <mxCell id="xFohhPVt6hkUlhmm95Wv-1" value="" style="shape=image;verticalLabelPosition=bottom;labelBackgroundColor=default;verticalAlign=top;aspect=fixed;imageAspect=0;image=data:image/png,iVBORw0KGgoAAAANSUhEUgAABDoAAAKcCAIAAACG2k0nAAAgAElEQVR4nOzdeVxO6eP/8auFViqhkJoYS2EsgzBkacZkjWbsZBlMNJbGlpFRxhIZY8QMYrJNlokQI/tYxhbZP8zYVaLQRovqvn9/nM/3/O5P25RKJ/N6/vFx3edc93Wuc+75PB7n3XWu62glJiYKAAAAAFAe7bLuAAAAAADkjbgCAAAAQKGIKwAAAAAUirgCAAAAQKGIKwAAAAAUirgCAAAAQKGIKwAAAAAUirgClJm///7bVENAQEBZ96hUXLp0SfM0r127VtY9ehP169eXT2HAgAFl3R0AAP4tiCsAAAAAFIq4AgAAAEChiCsAAAAAFEq3rDsA4B3XpEmTu3fvyh9NTU3LsDMAAKB8Ia4AKF26urrm5uZl3QsAAFAu8TAYoFCdOnWSl6Ly9PTMsffp06eay22Fh4fLu3x8fOTt8+bNE0Lcu3dv+vTpzZs3t7S0rFevXr9+/Q4dOiTXj4yM/PLLL+3t7S0sLJo0aTJq1Kjz58/n7k/btm3lZv/44w8hxOnTp0eOHNm4cWMLC4tGjRp9+eWXFy9ezP3FAlYGO3PmjLy9VatWQgiVSrVly5Y+ffrUq1fPwsLigw8++Oqrr65fv57fVVKpVMHBwS4uLnXr1rW0tGzevPmMGTMePnwohJgwYYLcuJ+fX6Eu+hvx9vbOcRY5tGrVSq7g7e0tbz98+LC83dnZWQiRnJzs7+/foUMHKysrGxsbJyenwMDA7Oxsqf7jx4+9vb1btmxpaWlZv3793r17h4SE5D7ctGnTcvwHcP/+/ZkzZ3744YeWlpbvv//+Z599tnPnzlK5FgAAlDRGV4B33Pr16728vNLT06WP6enphw4dOnTo0NSpU729vefNm7d06VKVSiXtjYqKioqK2rVr16JFi8aMGZNfm2q12svLa9WqVfKWmJiYbdu2bd++3dPT89tvv32zrj558sTNzU0zLD169Gjz5s3BwcH+/v5ffPFFjvpxcXGDBg3SzEj3799fvXr1r7/+unLlyjfrQxk6f/78iBEjHj9+LG+5ePHixYsXw8LCQkJCDh486OHhkZSUJO1KT0+Pi4s7ceJEeHh4YGCglpZWfs1u3br166+/Tk1Nlb945MiRI0eO/Prrr+vXr69UqVJpnhMAAMVFXAHeZbt27bpz506eu5YsWRIREXH8+PHcu1Qq1cyZM9u1a9eoUaM8v+vn53fu3Lnc29Vq9dKlS4UQb5BYXr582adPn1u3buXZn+nTp7dt29be3l7emJqa2qtXr7/++ivPpkaPHl2nTp2i9qEMPXz48LPPPktJScm968SJE66urmfPns3Kysq9NyQkpF27dqNGjcqz2T/++EMzjmo6cuTIgAEDwsLCdHR0itl5AABKDw+DAe8yKavUrVt3zpw5y5Yt69ixo+ZeKatYW1vPnj174cKFTZs2lXdlZWX98ssv+TUrZZUaNWq4u7t7eXnlaPaHH36IiIgoaldjY2Nv3bqlq6s7cODApUuXent716hRQ96bnZ29adMmzfrz5s3TzCrVq1efPn16QEDAxIkTTUxMMjMz80wyihUbG5uSkmJiYjJx4sTly5ePGDFCc++pU6eysrKMjY09PDy+//77nj17au5dvXp1fs1euHBBpVIZGBgMHjx45syZ/fv3r1ixorz39OnTK1asKOlTAQCgJDG6ArzjHBwcQkNDDQ0NhRBDhw5t3br1vXv35L329vb79+83MTERQri5uTk4OERHR0u7CpgxIoRwdHQMDg42NjaWPm7cuHHixIlSWa1W//jjj5s3by5qV/X09EJCQjp06CB97N+/v4ODQ1pamvTx6tWrcs3k5OSNGzfKH21tbQ8cOFC9enXp4xdffPHpp58+efKkqB0oW1WqVDl8+LA0KOTm5vb69evg4GB5r5GR0f79+5s0aSKE+OKLL4YNGxYWFibt+vvvvzMyMvT09PJstmbNmmFhYXXr1pU+jh8/3sXFRX6obOXKlePGjdPMMAAAKAqjK8A7zsfHR8oqQghdXd327dtr7p01a5aUVYQQRkZGH330kbzr+fPn+bWpp6cXGBgoZxUhhJubm+af/A8fPvz69euidtXNzU3OKkIIa2vrLl26yB/j4uLk8okTJ16+fCl//O677+SsIoSwsbHx8fEp6tHL3Lhx4zQfYOvUqZPmXjc3NymrSLp27SqX1Wp1QkJCfs0uXrxYzipCiGbNms2cOVP+GBcX9wZDYQAAvDXEFeBdpqurm2OtqhxrCjs6Omp+rFatmlwuIG84OjpaWFjk2NivXz+5nJ6efuPGjaL2NscNuhDC2tpas025HBkZKZcrVKigee8u6d27d7mbktG2bVvNj4X/pUT+P5axsXG3bt1ybNT8pcT/XkwAAJSGuAKUS2q1ujDVqlatqqv7P898aj72Y2JikmNhqPweKMrh/fffz72xfv36mh81B0MKKXcEMjIyksvyer5CiKdPn8rl2rVr536WydDQ0MrKqqgdKCWF/LEsLS01P+Y4qRynU8hfytbWNndsMzc318xCb/BLAQDw1hBXAKXQ1s73/4+573czMzML06a+vn6OLZor3hoYGBSwtwB53itrRgshxKtXrwrTVAEtCCFyZC2Z5gpauc9RIj8CV+KK9EuJN/2xcvwWOX6s4vxS4n8v9Rv8UgAAvDVMtQdK0fPnzwMDA2NiYh4/fhwTExMUFGRnZyfvzcjI0KxcwHTn3CvYyhPQC1bwTW0Bt90FS0xMzL1RczKJEKJy5cpFbbbwj29pRpE8F/8VQiQnJxfp6CtXrrx//770S40ePXrYsGGaezV/rCL9UqJMf6w8fynxvz/WG/xSAAC8NcQVoBQlJSVpvk/9wYMHmnFF84kmIYSZmZnmR82bV/kdf7L4+PiS7GgRXblyJffGu3fvan7M8WhTydJsPDo6OikpSV4wQPLs2bOYmJgitbly5Ur5FY05Xv+Snp4uL6UlivhLqVSqFy9eFKknJej+/fvJyck5AklCQoJml0r1lwIAoJh4GAwoRZaWlpojBocOHdLcm2NFpvfee0/zo+ajQTmCjRDiwoULJdXJN3Dp0qXcyxzv3r1bLhsZGWkGsxLXokULuaxWq3fs2JGjQlBQUFHbrFWrllw+cuSI5qsVC/9LvXjxIsejX5cuXcpzyOXtyM7O1lwNWaL5SwkhWrZs+RZ7BABA0RBXgFJkaGioufjs+vXr161bl5GRkZqaumfPnp9//lneZWxs/MEHH2h+V/MliefPn9d8Of1ff/31448/lmbH/9no0aM1X2wSGhqqmRl69OhRqgtzOTk5ac6+mDt37uXLl+WPv//++5IlS4rapoODg1y+deuWp6dnQkJCVlZWZGTk1KlTNWvmWMJL85fKysravn27/DElJWXGjBlF7UnJmj9//tmzZ+WPt27dmjdvnvyxdu3azZs3L4t+AQBQKDwMBpSuIUOGyHfSKpVqypQp06ZNU6vVOeZkDxs2LMeMiFatWu3cuVMqZ2Zm9ujRY8yYMTVq1Lh+/fqmTZtyTBR5+27duuXg4ODi4mJhYXHp0qXDhw/Lu3R0dCZMmFCqRzcyMho9erSc2RITEz/55JOuXbtaWVnduHHj1KlTb9DmkCFDNF/xvmHDhg0bNujo6GiuSCaEaNKkiWawEULkWCra09Pz+vXrTZo0iY6O3rRpU1RU1Bt0pgSlpKT06NGje/fudnZ2UVFRoaGhmktCT5gwodyt+AwA+FchrgCly83NbdOmTZpvZNd8ykjy/vvve3l55djYv3//JUuWyO9qfPr0qeYfxW1tbbW1tXNMF3lrLCwsnj59mpSUpPlqednMmTM1x5RKybRp0w4fPiy/3SUzM3Pfvn3y3jp16rx48SK/ieZ5srOzGz169Nq1azU35sgqhoaGAQEBOb7YpEmT9u3byxnp9evXmuNmBgYGH3744ZslqOIzMTFJT0/PyMgICwsLCwvLsbdLly5jxowpk44BAFBIPAwGlC49Pb1t27ZpzrXIoWXLlrt3784xU1wIYW5uvnr16hzvRZG0aNFi165dOSZ8v02urq7fffdd7r/Ka2trf/PNNzkenSolxsbG27ZtyzMX1atXb+fOnZqrh+W3IHIOCxYsGDJkSH57LS0tQ0JCmjVrlnvXTz/9lOe7aCwtLbds2VKGk0Osra1/++03U1PT3Lu6d+++efPmQi6IDABAWWF0BSh1NWrUOHTo0I4dO0JDQy9fvvz8+XMtLS0LC4tmzZq5urr27t07vzVqP/744xMnTqxaterQoUOPHz+uVKlSo0aNBgwY0L9//zJ/gGfChAkdOnT48ccfT58+nZCQUL16dUdHR3d39xwzcEqVlZXVkSNH1q9f/9tvv92+ffv169d16tRxdXV1d3c3NDTUfNzO2Ni4MA1WrFhx5cqVQ4cO3bhx49mzZ58+fZqZmWlmZmZnZ+fs7Dxs2LD82rG2tj569OjatWtDQ0MfPHigpaVVp06dPn36jBgxwtTU9I8//iiR830zjo6O586d++GHH8LDw6X/ij788EM3N7eePXuWYa8AACgkrSI9LAHgX6tt27Y3b96UyuPGjVu4cGEZdiYrK+vZs2fVqlXLL7ap1WorKyv5BYjr16/v06fPW+xgWZo2bVpgYKBUbtKkycmTJ8u2PwAAFAejKwDKn2fPnjVs2FBbW9vc3NzCwqJGjRobN27UfO/7/v37NV/W/hbm0gAAgNJAXAFQ/lSvXr1q1arPnj2Lj4+Pj4+/fv16r169evfubWpqmpycHBkZuXfvXrlyixYt6tatW4a9BQAAb4y4AqD80dbWnjx5sre3t7zlwoULeb46U1tbe86cOW+xawAAoCSxMhiAcsnDw2PKlCkFLzlgbGy8atWqjh07vrVeAQCAksXoCoBySUtLa/bs2QMGDAgJCTlz5sy9e/cSExPT0tIMDAxMTU3t7OwcHR2HDBlibm5e1j0FAABvjpXBAAAAACgUD4MBAAAAUCjiCgAAAACFIq4AAAAAUCjiCgAAAACFIq4AAAAAUCjiCgAAAACFIq4AAAAAUCjiCgAAAACFIq4AAAAAUCjiCgAAAACFIq4AAAAAUCjiCgAAAACFIq4AAAAAUCjiCgAAAACFIq4AAAAAUCjiCgAAAACFIq4AAAAAUCjiCgAAAACFIq4AAAAAUCjiCgAAAACFIq4AAAAAUCitsu4AAADAuywxMbGsuwCUY4yuAAAAAFAoXekfcj8AAEDJMjU1LesuAOUeoysAAAAAFIq4AgAAAEChiCsAAAAAFIq4AgAAAEChiCsAAAAAFIq4AgAAAEChiCsAAAAAFIq4AgAAAEChiCsAAAAAFIq4AgAAAEChiCsAAAAAFIq4AgAAAEChiCsAAAAAFIq4AgAAAEChiCsAAAAAFIq4AgAAAEChiCsAAAAAFIq4AgAAAEChiCsAAAAAFIq4AgAAAEChiCsAAAAAFIq4AgAAAEChiCsAAAAAFIq4AgAAAEChiCsAAAAAFIq4AgAAAEChiCsAAAAAFIq4AgAAAEChiCsAAAAAFIq4AgAAAEChiCsAAAAAFIq4AgAAAEChiCsAAAAAFIq4AgAAAEChiCsAAAAAFIq4AgAAAEChiCsAAAAAFIq4AgAAAEChiCsAAAAAFIq4AgAAAEChiCsAAAAAFIq4AgAAAEChiCsAAAAAFIq4AgAAAEChiCsAAAAAFIq4AgAAAEChiCsAAAAAFIq4AgAAAEChiCsAAAAAFIq4AgAAAEChiCsAAAAAFIq4AgAAAEChiCsAAAAAFIq4AgAAAEChiCsAAAAAFIq4AgAAAEChiCsAAAAAFIq4AgAAAEChiCsAAAAAFIq4AgAAAEChiCsAAAAAFIq4AgAAAEChiCsAAAAAFIq4AgAAAEChiCsAAAAAFIq4AgAAAEChiCsAAAAAFIq4AgAAAEChiCsAAAAAFIq4AgAAAEChiCsAAAAAFIq4AgAAAEChiCsAAAAAFIq4AgAAAEChiCsAAAAAFIq4AgAAAEChiCsAAAAAFIq4AgAAAEChiCsAAAAAFIq4AgAAAEChiCsAAAAAFIq4AgAAAEChiCsAAAAAFIq4AgAAAEChiCsAAAAAFIq4AgAAAEChiCsAAAAAFIq4AgAAAEChiCsAAAAAFIq4AgAAAEChiCsAAAAAFIq4AgAAAEChiCsAAAAAFIq4AgAAAEChiCsAAAAAFIq4AgAAAEChiCsAAAAAFIq4AgAAAEChiCsAAAAAFIq4AgAAAEChiCsAAAAAFIq4AgAAAEChiCsAAAAAFIq4AgAAAEChiCsAAAAAFIq4AgAAoCw3btyYOnWqubm56f8ZP368ZoXY2FgfH5969eqZmpp+8MEHvr6+arW6rHpbHkVERLRu3Vq+vOnp6cVpav78+TY2NnJrNjY21tbWVapUqVWrVosWLUaPHn358uUS7LymmTNnmpmZScedN29eKR1F05kzZ4YMGTJr1qw893766aemuYwdO7Y4RySuAAAAKEujRo2WLFni7+8vbwkODl67dq38sUaNGj4+Pjt37hRChIaGzpkzR0tLqww6Wm61atXK29u7pJqaNWuWj4+PvGXOnDmPHj26dOlSt27d7t27FxIS0qVLl23btpXI4XJYuHBh/fr1S6PlHLKzs0NDQ52cnLp167Zv3z6VSpW7TnR09Pnz53Nvd3NzK86hiSsAAABK9Nlnn2l+nDlzZo57wcaNG1euXLlu3bpvt1/vCDMzsxJsrXr16jm22NjYrFmzpnHjxkIIlUrl6en57NmzEjyizNTUtDSa1XTgwAF3d/f58+dfvHixgGo7d+6sWLGi0f9q3Lhx+/bti3N04goAAIBC2dnZtWjRQipnZmYOHz48Li5O3qulpfUWblXfVSU7HqWjo5N7o7a2dseOHaVyamrqsWPHSvCIsrcwsNa1a9fAwMBTp04V/N/bjh07duzYEfO/Tp06VcyjE1cAAAAUSk9P79dff61Ro4b0MTY2dsSIEVlZWWXbKxSe5kNT2trl9cZbSkT6+vrm5ub51bl79+6DBw/atGlT4kcvr1cNAADg36BGjRq//vqrgYGB9PH06dOzZ88uoP6jR49mzZr16aefNmzYsHbt2k5OTnv27JH3/uc//3FycpLnQN+5c2fBggUffPBB9erVHRwcpMkwf/75Z58+fWrVqlWnTp1p06ZlZmZqtp+ZmRkQENChQ4euXbs2bdp0wYIFr1+/Lrg/nTt3tra2Xrp0aQHV5syZI08Z9/HxOXjwoLOzc40aNRo1arR69eoclVNTU/38/Fq1avXhhx9+8MEHI0eOvHTpUpGuQw5ZWVlLly5t0qRJrVq1hgwZ8vTp0wK6WngZGRkHDhyQytWrV3dycpJ3paSkBAQE9O7du0WLFpaWli1btly6dKkcRJ8/fz5w4ED5Zzpw4MDPP//s4OBgYWHRvn37kydPFnDQ7OxsLy+vqlWrmpqatmzZcuXKlQVU/uGHH2xsbDp16vTo0aPCnFEBiSskJCQpKcna2tre3r5v376LFi0qZJv/fNASaQUAAAClpEWLFitWrJA//vzzz7/99lueNU+fPv3RRx/9/fffe/fuvX79evv27S9evOjm5vbrr79KFezt7efOnSvXHz58eLVq1Tw9PTMzM//666/Ro0dPnjx5zZo1X331VYMGDV68eBEYGKg54z8jI+Pzzz+fPXv2uHHjDh48OHbs2MWLFw8bNizPideSpUuXXrp0KTk5ee7cudHR0flV8/X1tbe3l8q//fbbnj17xo0bZ2hoGBMTM2PGDPmmXwjx6tWrXr16SXHl4sWLe/fuPXDgQNeuXYODgwt/HXJwc3O7deuWmZnZq1ev9u3bN2LEiPz6WUjZ2dmXL18eOHDgvXv3hBD169ffunWr/CRVfHx8ly5dli9fvmHDhsjISC8vrzt37sydO3fChAlSBXNz859//llubcaMGRkZGaNGjXr9+vX169cHDhwYHx+f36F1dHT8/Pysra179ux58uRJDw+P/GrGxsb6+vomJSVdvnx58eLFxTzl0NBQIURqaurjx4+PHTu2cOHC5s2be3t7F5xmC4O4AgAAoHSfffbZ1KlT5Y+TJk26fv167mozZsxISUk5d+5cfHy8rq6u/Od8zVXFNKcfzJo1a8yYMSNHjpSigkqliomJWb9+/ccffyyv5hQeHi7Xnz9//vHjx01NTQcMGCCE6NGjhxDiwIEDBQxcVK5cWSro6enJY0R5kjvWuHHjFStWuLi4SO0LIcLCwuRqc+fOlSZ89+vXTwhhbW3dqVOnzMzMr7/+WsoGhbwOmlxdXdesWSPvPXPmTHEGWObMmVOtWrVOnTodO3ZMT09vypQpf/75pzwHSQixdOnS27dvx8fHnz17Vgjh7Owsbd+yZcvLly9zXA0hxBdffDF58uQvv/zS1tZWCPHq1asjR44U0IGff/65devWGzZsKPiC6+vr6+np5T7cG7h+/fqtW7dybMzOzl6xYoWbm1sxV9kmrgAAAJQDs2bN6tmzp1ROTU0dNmxYUlJSnjWTk5OjoqKEEBUrVpS2JCYmyns1Z2Y3bdpUKhgbG8tbpAryFnlyf3p6+rp164QQNjY20sxyeXEtzTiRw9SpU0eMGOHo6BgUFFTAzAfNjtnZ2UkFIyMjqfD8+XP51DZs2CCVra2tpUKtWrWk7sm7CnMdNH3++edCiGrVqslbNJc0KCpfX99nz56dPXt23LhxGRkZ33//fePGjfNMSv/5z380uyeEkH9TzZ+pgAuSW1BQ0OnTp3/66ac8Z/9rMjMzCwoKcnR0HD58+PTp0wt1bvmoWrVqWFjYli1bli5dOmLECHm2lRAiPDy8mIs46xbnywAAAHg7tLS0Vq9e7ezsfO3aNSHE/fv3x4wZk+Pv1iEhISEhITY2Nq1btw4PDw8KCpK2Z2dn/2Pj+W1JS0uTClevXn316pUQ4u7du1JwUqvVUmZITU3Nr+XKlSsvW7as0GeZN3n+zIULF+RXOpqYmEgF+Xb/9OnTUuHNroPmxIyMjIzidFhbW7thw4YLFy7Mzs5es2bN06dPp06dmpSUNGXKFCGEj4+PnZ1dVlbW4MGDr1279v3338tf/MdfSpJjQpFszZo1M2bMsLW1TU9PNzQ0/Md2unfv3r1798KdU0EsLS0tLS3lj1lZWdu3b/f29n7x4oUQIjQ0dODAgW/cOKMrAAAA5YORkVFwcLD8io+DBw8mJydrVrCwsPDw8NDT03N0dNy0aZM8GlMi5PkSOjo6e/fu3bt37759+65evXr16tUtW7aU4IFyk1OZ5qtLKlSokGOvPCRS/OtQzOeXZOPHj5fL33//vZS19PT03NzcPvrooy+++GLs2LF9+vQpke7t2rVrxowZarX63r17c+bMKU63i0lXV3fw4MFHjx6tWrWqKN5QlSCuAAAAlCO1a9fetGmTPOUgh5SUlOHDh/fr169evXqbNm3SfLqp+OS/1iclJUkPWb19eb7bUR5qkMdbSvU6FImNjY2u7n+fZpKmoUtlf3//9u3b3759e9++fR988EGJHMvW1nbRokVSee3atSdOnCiRZt/Ye++9N3nyZCGEjY1NcdohrgAAAJQnDg4OP/zwQ567Ro8evXv3biHEnDlzSvwtH40aNZKfEAsMDNTcVcCrAJOTkz09PV1cXDSn7L+xli1byoMq8kQU6RE1IUTr1q2lQgleh8uXL0+YMMHPz0+eBF8kycnJ8vLEurq6UnAKCAiYP39+ZmbmpEmTqlSpUpzuaWratOnYsWO7dOkihFCr1R4eHjkG33L7/fffXVxcPD09U1JSinn0PAd8pCQmLYoghAgNDR0/fvyGDRuKNHhFXAEAAFCitLQ0ed5IDoMHD5YXvZU9fvxYXvD39u3bmZmZ8ttI8ltouIC7xty7NN8csmbNmsOHD0vldevW3b59O792Fi1aFBQUdPz48eHDh0szGf6RfOjcfTAzMxs8eLBUlhfvevLkiRBCV1d31KhR4o2uQ36SkpJcXFw2bdrk5+c3ZMiQAmrmN+dk69atcrl///6VKlUSQshzaaTrFhERIdfJs4cFXJDcAgICpFGmqKiob775poCaz58/Hzly5PHjx4OCggq5kLEcvXL088GDBw0aNGjYsOGSJUs0Vy6+ePGik5OTND3m1KlTI0eODA4OnjRp0pIlSwpzOAlxBQAAQIkiIyMfPHiQ34q6vr6+n376qeYWIyMjeeShf//+DRs2lOeLP3nyZMaMGQ8fPhRCaI4SyAMU8kZ5ZaqEhASp8OrVK/le3N/fX5qNkJ6e3q9fvzZt2rRu3fr48eMFvKhEPkRGRoY8DJKn3H2QC5qjBHPnzm3cuLEQYvv27UKI6OhoaTnghQsXSssxF/I6aHZGGlvQXGlNOmJcXJy88fjx4zExMfl1XnN6hrTeV1ZW1tatW319faWNzs7O8hts5IfWli1bVqtWrfPnz8vDVosWLfr999/F//5MBV8Q+USkvbVq1ZInrmzevLmARdtSU1PlKyP/3AXIzMyU5w7luBRRUVFxcXFPnjyZN29eu3bttm3bdu3atVWrVkVGRv7yyy/S2WlmWs2X5Pyj/y5w5uXlVfjvAAAA4B/5+fmJN7rLun79+vLly6UHkMLDw5OTk+vUqSOvLCzR0tJydnY+duzY0KFDpS36+vpWVlYRERG6urouLi6BgYH9+vW7detWVFRUzZo1hw0b1qZNm1u3bk2ZMkWeQfH333+3a9fu+++/37t3r7Tl/v371apVS0hImD17tnQTr1KpHjx40KlTJz09PTMzsz59+rx48SIuLi47O9vU1HTEiBFz584tYM1cOzu7M2fOpKWlTZs2rVu3bvlVmzt37p49e6TRgwcPHtSrV+/69evLli2T5qXEx8dra2u3a9dOOs1+/fppa2sfOHBgw4YNQUFBzZo1+/HHH/v27Vv463D16tVvvvlGjoL37t1r06aN5ptb7t+/36JFCzs7ux9rUMcAACAASURBVPj4+Lt371pZWSUkJAwaNMjCwiJHzy9cuLB+/fqlS5fKS5ZFRkZu3rx58eLF4eHhNWvW/OSTT3x9fadPny6vYNa0adPz58+npqa2bdt22bJlY8aM0dXVvXLlipGRUefOnUeMGJGQkDB+/Hj5/v7u3bvt2rX78ccf5RGthw8f2tra1q9ff86cOXv37pWu28OHD62srOzt7ffv3//nn39KNQ8dOmRgYNCqVavc19zExERLS+vq1asNGjTw9/cv4NUr165d27Ztm5+fn9ylO3fuxMbGxsXFSWth29jY1KtX79mzZ6mpqc+ePbt48eK9e/fatWs3Y8YMfX196St169Y9d+7cq1evzMzMpEcE8ztcDv9NcvmtQg0AAIA3I93/cZf1Djh8+PCQIUPu379fmNWBUTAfH59z587t37+/kPV5GAwAAAAoyL59+9zc3MgqxadSqfbv3+/u7l74r/CaSAAAACBfwcHBcXFxORZDwxvIysqaPn36Z5995uLiUvhvEVcAAACAvK1cudLExGTjxo0FzM9BYbx+/XrOnDl9+vRxdHQs0heZuwIAAFAqmLsCFB9zVwAAAAAoFHEFAAAAgEIRVwAAAAAoFHEFAAAAgEIRVwAAAAAoFHEFAAAAgEIRVwAAAFAqkpKSfvzxx48//tj0/1hYWNjY2NSoUaNRo0aff/55UFDQ69evS/CI58+fb9u2rXy4rKysEmy8ZJ05c2bIkCGzZs3Kc+/x48d79uzp5OTUvn17Hx+f5OTkt9w95SCuAAAAoFSYmJhMmjQpNDRUW/u/95xt2rR5+PDhqVOnateuffjwYU9Pz86dO8fFxZXUEVu3bj19+vSSak0IoVKpBg8eXIINZmdnh4aGOjk5devWbd++fSqVKnedjRs3uri41KhR48iRIwEBAcuWLevevfuLFy9KsBvlCHEFAAAApahSpUqGhoaaW+rWrbt27dqKFSsKIW7cuDF58uQSPJz0ds6S8tNPP124cKGkWjtw4IC7u/v8+fMvXryYX5179+55enoKIXr16iWEaN68uYWFxfXr1728vEqqG+ULcQUAAAClS0dHJ8cWKyurevXqSeXw8PCEhISSOpaWllZJNXX48OE5c+aUVGtCiK5duwYGBp46daqATBUQEJCdnS2EMDc3l7ZYW1sLIUJCQh49elSCnSkviCsAAAAoA1WrVpUKKpVKgU867d+/f+jQoVJyKClSlNLX15ejSG6HDx+WCvr6+lJBT09PCKFSqf74448S7Ex5QVwBAABAGXj69KlUqFChgjSAIIRQq9XBwcEff/xxkyZNmjVr1rNnz927d+f+7v79+3v16tWhQwdbW9tPPvlk7969BRzoxIkTHTt2NDU1NTc3d3d3v3Hjhrxr3759zs7OXbt2bdKkybhx4548eSJtX758+ZAhQ9LT04UQcXFx0sT9efPm5XeIH374wcbGplOnToUcAJEn8+Tw6NGjqKgoqVyhQgWpII8XnTp1qjCNv2OIKwAAAHjb7t69e+fOHak8atQo+dZ82rRp48ePT05OPnfu3Llz55KTk4cPHz5p0iTN7y5ZsmTQoEHm5uYnT54cMWJERETE0KFDQ0JC8juWo6Ojh4dHpUqVQkJCVq1a1ahRI2n7vHnzhgwZUqdOnYMHD27atGnLli1du3Z99uyZEOKzzz6THwMzNzePjIyMjIz08PDIs/3Y2FhfX9+kpKTLly8vXry4OJdFM+3IkUaOK48fPy5O4+UUcQUAAABvj0qlunbt2qhRo6RVhp2dnWfPni3tCgsLW7t2rRCiV69ehoaGenp6AwcOFEJs2LBh+/btUp0zZ87Mnz9fCPHFF18IIT766CNp+9atW/M74vPnz1evXr1r167OnTvLGw8ePLhkyRIhhLu7uxCiWbNmVlZWjx498vPzE0LUqlWrWrVqUk0dHZ06derUqVPHzMwsz/b19fWl57VEsSf6az4UlzuuSFHq34a4AgAAgLfk3Llz9vb2/fv3V6lU/fv33759e3BwsLGxsbQ3ICBAKsjPhtWqVUsqrF69WiosX75crVYLIWxsbIQQjo6OHTp0MDIy6tGjR55HfP78uaurq7+//4cffqi5fcWKFVLB1tZWKkhpJCwsrKgnZWZmFhQU5OjoOHz48GIuo5yRkZF7Y56LHf976JZ1BwAAAPBv4eDgkOdcFCFEWlqavGSwiYmJVJAWOxZCXLx4MT09XU9P78SJE5rfqlixYgEBIz4+3tXV9ebNm1evXm3RooW8Xa1Wnzt3Tir3799fWrgsLS1Nikmpqak5Vl7+R927d+/evXuRvpKnPAdnpHgmhKhSpUrxD1HuEFcAAABQ9hISEuRhBHkqi3ynLoSIj483MTF59eqV9DEqKkoehMlP7969b9++LYTw9vbu0qWLXD85OVkex1i8eHGTJk1K7jyKpU6dOnJZvhpy4R/P953Ew2AAAAAoeyYmJrlfmZKZmalZwdDQUJ7RcfLkyX9sc/Hixe+9954Q4uXLl+PHj5fDj4GBgXys69evF7vvJaZu3bryEIp87vJiym3bti2bbpUp4goAAADKnpGRUdOmTaVyYmKiVJDHUho2bFi5cmVdXV25TlBQUGpqasFtdujQ4aeffpISzqlTp1atWiVtr1ixYv369aWyNLlfdubMGWk0o0ivm/z9999dXFw8PT1TUlIK/6089ezZUyq8fPlSKkj90dbW7tKlSzEbL4+IKwAAAChd8vhAwbPG5ZWC5VeyyC9C+fLLL6XCmDFj5DpffPFFcnKyECImJsbDwyPPVzq2a9du/PjxUnnu3LnSs2FCiEGDBkmFixcvSquBCSEiIiK2bdsmxRt5+oo0ypGZmXnz5s08u/38+fORI0ceP348KCiokAsZS6uiibwuyIQJE6Rn4WJjY6UtUsHV1bV27dqFafwdQ1wBAABAKUpJSZGHQQpeirdfv36DBw8WQuzevTsjIyMzM1Oal+/q6jpixAipzqBBg/r06SOV9+/f37Bhw+bNm3fo0GHUqFHSjHl5QEYIkZSUJITw9vaWZn2kpaWNHTv29evXQohx48a1bt1aqubn59eoUaMuXbqMHz/+22+/lTY6ODgYGBgIIRISEpYuXTpu3DjpY26pqanyTJiEhIR/vCCZmZnydYiJicmxt169eosXL9bS0tq3b58Q4uLFi9HR0XZ2dsV8o0v5pSP94+XlVbb9AAAAeMdIf7P/N99lJSUlrVmz5rvvvpNvyp89e3bz5s1nz57lWFZY1q1bt5o1a169enXlypVBQUH6+vpeXl6zZ8/WfAlJr169TE1NHz9+nJKSYmZm1qFDhzVr1tjb2wshIiMjZ82aFRcXJ1W+f/9+hw4d4uLiQkNDpSDx5MmTs2fPOjg4VKtWzdXVVUtLKzY2Ni0tzdjYuEuXLj/99JO5ubn0XWNj41atWl2/fj0lJSUhIWHq1Kn5zciXZt1cvXq1QYMG/v7+Bbx65dq1a9u2bfPz85MHee7cuRMbGxsXFyc/5CaEaN68ebNmzQ4ePLh8+fJdu3YNGjRo9erVxXyjS/n132fy5AcEAQAAUCKk+0vusoDi4GEwAAAAAApFXAEAAACgUMQVAAAAAApFXAEAAACgUMQVAAAAAApFXAEAAACgUMQVAAAAAApFXAEAAACgUMQVAAAAAApFXAEAAACgUMQVAAAAAApFXAEAAACgUMQVAAAAAApFXAEAAACgUMQVAAAAAApFXAEAAACgUMQVAAAAAApFXAEAAACgUMQVAAAAAApFXAEAAACgUMQVAAAAAApFXAEAAACgUMQVAAAAAApFXAEAAACgUMQVAAAAAAqlW9YdAAAAQDnj4+NT1l14c5qdL9cnUrB35tSIKwAAACiymTNnlnUX3sTChQtzbCmnJ1Kw3KdZfvEwGAAAAACFYnQFAAAARaZWq8u6CyXjnTmRdxVxBQAAAEWmUqnKugsl4505kXcVD4MBAAAA5YxarX706FFZ9+JtIK4AAACgyNR5WbNmTc28PHr0KM/6kkePHtWsWfPly5cF1PlH7dq1279//z9WK+SJNGzYMPdZTJo0qTg9/EcxMTE1a9ZMTEwsTOVvvvkmODg4v71v/7+H0sPDYAAAACiyPO+JBw0a1KNHDyHEqVOnvLy8Tp06JW2vXr16AffQ0q7i32e/WQt5fuXo0aPSdjc3Nycnp+HDhwshDAwM3kISKORZJCQkmJiYvGPJJE+MrgAAAKDI8vyjvqGhoaWlpaWlpampqRDC8v+EhIR06tTJzs6ue/fuJ06cyHM0IDAwsGXLlg4ODsuXL8/Ozlar1Tdu3Bg8ePCHH374/vvvu7q63r9/X61Wb9u2beDAgV9//fXHH3/ctm3b1atXazaiVqs3bNjQvHnzmzdvFnLYIc9qFhYWUs8rVKhgbGwslfX19RcsWNCyZcvGjRsPHz5c6o8mT0/PyZMn9+/f38XFpW/fvnIfIiIiXF1d7ezs2rdvv27dOpVKpVarX79+vWDBgubNmzdq1GjUqFFxcXHyKWRnZ3t4eLi4uCQnJ6vV6vDw8E8++cTOzq5nz54XLlxQq9U///zzwYMHf/nll6lTpxbyNMsv4goAAACKLM+75Bx3zFJh3759vr6+CxYsuHLliru7+8iRI//666/clW/evHns2LENGzasX79+x44darX6yy+/bNWq1dmzZy9evGhgYBAQECDVPHXqlLOz88GDB5cvX75gwYLHjx/Lh9u6devy5cu3bt3aoEGDQt7HF/5E5s2bd/z48R07dpw/f97W1nbYsGFpaWk5Kh86dMjf3z80NHTw4MEjR47MyMiIjo4ePHhwr169Ll++/NNPP/30009btmxRq9XLly8/cuRIaGhoRESEgYHBjBkzpGOpVKqpU6c+fvx406ZNxsbGkZGRHh4eM2fOvHr1qru7+/Dhw58+ffrll19+8sknI0eOXLx4cSFPs/wirgAAAKDI/vEWX64TEhIyYMAABwcHHR2dHj16ODo6hoaG5q4/e/ZsQ0PDevXqubm57dq1S61Wb9iwwd3dPTMz88mTJ+bm5tL4g1qttrKycnJyUqvVLVq0MDIyevjwodTC7t27vby8goKC3n///YI7VqQTkQoqlWrHjh1TpkyxsrLS09ObOXNmUlLSuXPnclTu27evlZWVWq12dXVNTU2NiIjYt2/f+++/7+bmpqur26hRo7Fjx27btk2tVoeGho4bN6527dp6enq+vr5TpkyRWvD29j516tTGjRuNjIzUavWWLVt69OjRsWNHbW3tbt26NWnSZPfu3ZodK+Rpll/MXQEAAECRFbz+r/S8k1QnPj6+ffv2cn0rK6uYmBjNr6vV6goVKlhYWEgba9asGRcXp1Kprl27Nnbs2Pj4eCl+GBgYSM2amZnJX9fR0cnOzpY+RkRE1KtXLzQ01M7OrqROROqeSqVKT09PSUmpWbOmVF9bW9vS0jI6OjrHichnIYQwNTWNi4uLj4+3srLSPP3Hjx+rVKr4+HhLS0tpu4mJiYmJSWxsrBAiJiYmJSXlzz//dHJyEkJER0dHREQcOnRI+npWVlb9+vWl61CYzr8DiCsAAAAossL8CV+qU7NmzaioKLn+o0ePbG1tNb+uVqszMzNTUlKMjY2FEHFxcbVq1YqOjp44cWJgYGDnzp2FEN9///21a9c0Rzw0vy6PS9ja2rq6ujo7Ozdv3rykTkRqX09Pr0qVKlFRUfXr1xdCZGVlxcbGVqtWLcfXo6OjpS0ZGRlPnjyxtLRMTEz8888/NU9f+palpWVsbKy0PSYmZsuWLUOGDBFC/Pzzz7///vusWbNatmxZuXJlS0vLgQMHzpkzR26/cuXKarVaS0vr3RtIyRMPgwEAAKAUff7559u3bz9//nx2dnZ4ePjJkyd79+6du9ratWuFEM+fP9+yZUv//v1fvnypUqksLCyEEDdu3Pjtt98yMzMLPlCFChXs7e1Hjhw5Y8aMjIyM0jiRH374ITo6OiMjw9/fX19fv23btjnq7Nmz58qVKxkZGYsXL7awsGjRooWzs/PDhw83bdqUmZl58+bNdevW9e3bVwjRt2/f1atXx8TEZGRkLF269M6dO1ILFStWHDp0aM2aNefNmycddMeOHWfPnlWr1ZGRkd27d4+MjJSqPX78OCEhocRPU2kYXQEAAECR/ePDYPL/duzY0dvb29vb+/HjxzY2NgEBAfb29ppfV6lUBgYGL1++7NmzZ1ZW1siRI6XnoCZMmDB8+HDpObEBAwZs3bo1MzNTnkkif136KG+fMGHC/v37ly1bNm3atOKfiObhJk2aJIQYMGBASkpKs2bNNmzYoKenl6MnrVu39vX1vXPnTrNmzdatW6elpWVubv7LL7/4+fn5+/tXrlx52LBhw4YNU6lUo0ePTk1N7devX1pa2kcffTR//vz09HS5PwsWLHBxcenevbujo+OCBQt8fX1jYmKqVKni5eXl6OioUqm6dev29ddfx8bGbt68uTCnWX5pSf8kJiaWbT8AAADeMdJivu/kXZaPj4+Hh0dZ9+JNrFy50sfHR/5YsicyY8YMMzMzLy+vkmrwjeU4zXKN0RUAAAAU2Tsza6IET+SdXJirzDF3BQAAAIBCMboCAACAIntnxhBK8ET8/PxKtkEI4goAAADewDvzxo935kTeVcQVAAAAFNnq1avLugsl4505kXcVK4MBAACUind4ZTDgrWGqPQAAAACFIq4AAAAAUCjiCgAAAACFIq4AAAAAUCjiCgAAAACFIq4AAAAAUCjiCgAAAACFIq4AAAAAUCjiCgAAAACFIq4AAAAAUCjiCgAAAACFIq4AAAAAUCjiCgAAAACFIq4AAAAAUCjiCgAAAACFIq4AAAAAUCjiCgAAAACFIq4AAAAAUCjiCgAAAACFIq4AAAAAUCjiCgAAAACFIq4AAAAAUCjiCgAAAACFIq4AAAAAUCjiCgAAAMpGeHj4t99+W6NGDdP/Y2tra29v37BhQysrK3njgAEDCtNaZmamm5ublZXVxIkTS7vnu3bt6ty5s9zDiIiI0j7ivxZxBQAAAGXD2dl57ty5I0aMkLcsWbLkP//5z61bt6Kjo69cufLll18WvrWjR4/u2bPn5cuXGzduvHz5csl3V0OfPn1++eWXUj0EJLpl3QEAAAD8q1WtWjXP7TY2NosWLTIyMrpx40Zh2rG1tdXV1c3KyjIyMqpZs2aJ9jEPZmZmpX0ICEZXAAAAULa0tQu6I504caKOjk5h2qlfv/7vv/8+a9as8PDw6tWrl1Dv8qWlpVXah4BgdAUAAADKtGXLlkGDBpmamrZp06aQX2ndunXr1q1LtVd4yxhdAQAAgOK8fv365MmTUlmaOu/n52dubi5NbZ8wYYIQIjAwsEmTJvXr17906dKff/7ZpUsXee7706dP5aYyMzMDAgI6dOjQtWvXpk2bLliw4PXr19KuOXPmmJmZSV/x8fE5ePCgs7NzjRo1GjVqtHr16hxdSkhI8PLysre3t7S0dHV1vXv3bu5uZ2dnL1mypEWLFnZ2dlLLPXr0KOA0Hz161LlzZ2tr66VLlxbjar3LiCsAAABQnJCQkJcvX2pu8fLy6tKli/xx8eLF06ZNi4qKiouL279//0cffeTj45O7nYyMjM8//3z27Nnjxo07ePDg2LFjFy9ePGzYMJVKJYTw9fW1t7eXav7222979uwZN26coaFhTEzMjBkzDhw4ILeTmJj46aefrlq1Sltbe9euXWPHjh0/fnzuw/n5+c2bN+/zzz+/efPm2bNn7ezscpxFDkuXLr106VJycvLcuXOjo6OLcIH+NYgrAAAAUJDs7Oy9e/fOnDkz965KlSpJhfPnzz948CAsLMzW1rZixYodO3YU+cx9nz9//vHjx+XVkKWxjgMHDuzZs0eqYGpqKhUaN268YsUKFxcXeTwkLCxMbue77777+++/hRATJ05s06aNs7NzQEBA7sOtW7dOCHHjxo2srKwGDRoEBwdLuSg/lStXlgp6enoGBgYF1PzXYu4KAAAAlGLWrFnjx4/PyMgouNqjR48OHz5cqVKlCxcupKWlGRsb51ktPT1dyg82NjbSfH050oSFhfXp00dozJi3s7OTCkZGRlLh+fPncjvbtm2Tyi1btpQK9evXz3E4lUqVmpoqhNi3b1+3bt1WrVpVt27dr776qoATmTp1anJy8r1799zd3c3NzQs+638n4goAAACUYv78+b179z569OisWbMKqNaiRQtppEVHRye/rCKEuHr16qtXr4QQd+/e7dmzpxBCrVZbW1sLIaRcUbDMzEypcOPGDfmZrgLWL9bW1u7WrVtoaKgQIiIion379r6+vmPHji3gEJUrV162bNk/9uTfjLgCAAAABalQocKnn3763nvvLViwIL86hXytSnx8vFTQ0dHZu3dvUXuiVqtztCN1r4Cv+Pv737179+rVq0KItLS06dOn//3330uWLCnqoSFj7goAAAAUp0GDBvLTWbnp6+sXphFDQ0OpkJSUFBUV9cad0RxRSUtLK6Bm1apVDx486O7uLj9jtnbt2jNnzrzxoUFcAQAAgBJ5eXkVs4VGjRrJsSEwMFBz16lTpwrfTt26deV3WT569KiAmosWLdLX1/fz89uzZ4+lpaW0MTIyMr/6ycnJnp6eLi4u4eHhhe/PvwpxBQAAAGVJc+0s+fmrPBW8N7fq1as7OTlJ5TVr1hw+fFgqr1u37vbt2/k1nvsoVatWlZcLk5cUO3r0qFxBfpFLWFjYxYsXhRAdOnSQZ+dLs2XytGjRoqCgoOPHjw8fPvzFixdFOrt/CeauAAAAoCzFxcXJZXkxrjwlJydLhfT09Nx7k5KSNMsWFhZCCH9//08++eTZs2fp6en9+vVr0KCBSqVq2LDhhg0bpJryHHr563JBPpwQ4ttvvz1x4kRSUtKmTZuqVKlSsWLFP//8U967YsWKqlWrNmjQwMDAYNCgQb/88kv79u2lDNOwYcOuXbvmd0aJiYlSISMj49WrV1WqVCng9P+ddKR/ij/WBgAAAE1+fn6Cu6wChYeHb968OTAwMDs7W9oSEREhrWKce0QiICDg119/zcrKEkI8ePBApVK1bt1aWp5YCHH69Glvb+8nT55IH+/du2dvb29hYWFmZtanT58XL17ExcVlZ2ebmpqOGDFi7ty50hfnzp27Z88eaTjlwYMH9erVu379+rJly6Q1weLj47W1tdu1ayeEMDc379atW1RU1NOnTy9fvlynTh0/P78dO3a0a9eub9++Tk5OdevWNTY2Dg0NvXHjRnBwcFBQ0I4dO3r27LlmzRoTE5P8roCdnd2ZM2fS0tKmTZvWrVu3Er2674j/PswnBzsAAACUCOn9g9xlAcXB3BUAAAAACkVcAQAAAKBQxBUAAAAACkVcAQAAAKBQxBUAAAAACkVcAQAAAKBQxBUAAAAACkVcAQAAAKBQxBUAAAAACkVcAQAAAKBQxBUAAAAACkVcAQAAAKBQxBUAAAAACkVcAQAAAKBQxBUAAAAACkVcAQAAAKBQxBUAAAAACkVcAQAAAKBQxBUAAAAACkVcAQAAAKBQxBUAAAAACkVcAQAAAKBQxBUAAAAACkVcAQAAAKBQxBUAAAAACqVb1h0AAAAA/pmPj09Zd+ENld+eKwFxBQAAAOXDzJkzy7oLRbZw4cKy7kL5xsNgAAAAABSK0RUAAACUD2q1uqy7gLeNuAIAAIDyQaVSlXUX8LbxMBgAAAAAhSKuAAAAoHxQ5+Xy5cs1Nbz33nsfffRRcHBwnpVlEyZMsLW17dmzZ8HV8vPo0aOaNWu+fPnyH2uW9TUr93gYDAAAAOVDnnf/0saIiIjKlSsLIV69erVjx45p06Y1bdrUzs4uz3YSEhJ27Nixfft2e3v7N0sU0rcIJG8BoysAAAAoHwoYwTAwMDA0NDQ0NKxWrZq7u7upqemVK1fUanVCQoKnp2fz5s1btmzp6+ubnp7++PHjjz/+WAgxYcKEAwcOTJgw4euvv3ZwcOjQocPr16/Dw8M/+eQTOzu7nj17XrhwQWp/586dHTp0sLe379q16+7du+WDbt68uW3btvXr1588efLr168ZXSkNxBUAAACUDwXkAfljVlbW5s2bk5OTmzZtqlarJ06cmJiYePTo0f3799+4ccPf39/S0nLfvn1CiAMHDvTr108IcfDgwaCgoF9//fXatWseHh4zZ868evWqu7v78OHDnz59+vLlyylTpqxYseL69euTJ0+eOXNmWlqadNwLFy7s27cvLCzsyJEjcowhrpQsHgYDAABA+VDAw2Dt2rXT0tISQqSlpb333nsBAQH169ePjY09duzYyZMnpefEpkyZMmLEiG+++UbzUS61Wt2xY8cGDRoIIZYvX96jR4+OHTsKIbp167Z58+bdu3e7ubkZGBgEBwe7uro6OTlduXJFW1tbasHb29vExMTExKR169YPHz4knJQG4goAAADKhzwXMpY2btu2rVKlSrdu3ZozZ85nn33WrVs3lUoVFRUlhOjevbtcOSMj4/nz51KuUKlU0nctLS2lQnR0dERExKFDh6TKWVlZ9evX19XV3bJly4oVK0aOHKlWq4cOHfr1119LLZiYmEhfrFChQlZWFusslwbiCgAAAMqHAkZXatasWbly5Vq1allYWPTr18/Q0HDo0KEWFhZaWlp//PGHmZmZECItLe3p06empqbx8fFCY3RFS0tLasTS0nLgwIFz5syRWo6Ojq5cuXJSUlJycvLKlSuzs7PPnz8/bty4xo0bN2nSRPzvVHse/SolzF0BAADAu6Nx48YzZ86cN2/erVu3atWq1bZtW19f3+Tk5LS0tNmzZ3t6ehbw3c8//3zHjh1nz55Vq9WRkZHdu3ePjIx8+fLl8OHDjx07pqOjY2lpKYQwNTV9W2cD4goAAADKCVVeNJ/skgwZMsTBwcHT0zMtLe2HH37Q0tL6KVfBKQAAIABJREFU+OOP27Vrl5SUtHLlSvkZMLmgVqulcsuWLRcsWODr69u0adOvv/7ay8vL0dHR0tLy+++/X7BgQePGjYcOHfrVV185ODhotiD1QW4kh7K9Yu8ALemfxMTEsu0HAADAO0b6Gzx3WSXFx8fHw8OjrHtRZCtXrvTx8SnrXpRjzF0BAABA+cDkkH8hHgYDAAAAoFCMrgAAAKB8YHTlX4i4AgAAgPKBmev/QsQVAAAAlA+rV68u6y7gbWNlMAAAgFLBymBA8THVHgAAAIBCEVcAAAAAKBRxBQAAAIBCEVcAAAAAKBRxBQAAAIBCEVcAAAAAKBRxBQAAAIBCEVcAAAAAKBRxBQAAAIBCEVcAAAAAKBRxBQAAAIBCEVcAAAAAKBRxBQAAAIBCEVcAAAAAKBRxBQAAAIBC6ZZ1BwAApcV0mWlZdwHFkjg5say7AABljNEVAAAAAApFXAEAAEBJevbsmZ+fX+PGjcu6I0Vz586dadOmtW/fvqw7UgKys7ODg4OdnJyCg4PLui/FRVwBAABQum3btnXu3NnMzGzfvn3yxvT09K1btzZo0MDT0/PatWtl2L0cVCrV69ev4+PjS/tACQkJGzdutLKyql279qhRoyZPnuzi4tKjRw/Nq1R4lpaWFSpUSE5OLk6Xbt++PWbMmOXLl+fYvmvXLtP/s3jx4gJa2LVrV9u2bU1NTXv06DFgwIA2bdr4+vpmZGQUqRs6Ojrt27e/cuVK4b+SnZ19+/btIh3l9OnTjo6OVlZWn376aWRkpOauwp/vP2LuCgAAgNINGDCgV69ejRs3Hjdu3NGjR99//30hhL6+/sCBA48dOzZ9+vQaNWqUdR//v+rVq7+doRUzMzM3N7cdO3YkJSX98ssv0saAgIAhQ4YEBQX17du3SK0ZGxtbW1sXpz9PnjyJjIwMCwuzt7fPsWvnzp0LFy6Uyv379y+gkT59+ty6devmzZs7duzQ19c/ffp0z549o6OjAwMDi9QZa2trY2PjwtffuXNnxYoV69WrV8j6jx8//vbbb0ePHp2dne3v7+/q6nru3DkLCwu5tUKe7z9idAUAAKAcMDQ0rFevnq6u7tChQ1++fClvr1ixYsWKFcuwY3nS0dF5a8fS19fX/DhhwgRzc/P169e/QVPa2sW6N7a0tBwwYICVlVWO7YcPH3Z0dBz3f8zNzQtuR09PTy63a9euVatWISEhaWlpRe1P4U/n1q1bU6dOLVLjJ06c2L59u5ub28iRI7dt25aYmHj06FFpV1HPt2DEFQAAgPKhatWq69evv3379oQJE/Ks4O/vP2PGDHd39549e8bGxgohLl++PGbMmIkTJ/7xxx+tWrWqV6/egQMHHj586OzsXKNGjdmzZ0tfVKvVAQEBM2bM6Ny5s7u7e+4HojIzM5s1a7Z27drcB01KSvL19fXw8GjXrp2/v3/uCikpKR4eHvPmzevbt+9XX32VnZ2dlJQUEBDwwQcf3L59e8SIETVr1pw0aZLUVJ7bi0Sl+n/t3XlcT9kD//HTpmWSlL1FXwyDQiVjMJaMbTDILlu+Kfu+ZSzDNHbTYtKCCVnKEsa+78tgrH1TIiTDRKmopPp8fn/c+d1fv1SK6Jp5Pf+YuZ9zz733nMv38b3vOfecq9LQ0JCf+KOjo11dXT09Pdu2bRsUFCSEuH//voeHh6OjY1RUVJs2bSwtLTds2JDnJBkZGR06dOjcufPmzZvz7IqIiLCysrpx40ZBDdDR0clT4uXl5eHh0a1bt5MnTxa3O0IIDQ0NPT09KZTGxcVNmDBh5syZHTp08PLykuvcuXNn/PjxEyZMaN269b59+/KcYd++fVWrVl24cOHt27eFEJGRkR4eHi4uLs2bN9+/f39mZmZISEhaWtratWsnTpxYxP46OTmZmJhI2zY2NsbGxvI9f8/+5kFcAQAA+GS0bNnyxx9/3LFjh5+fX55dhw8f9vPzW7x4cUBAQFJSUnBwsBCibNmykZGR//vf/549e7Z//34HB4epU6fu2LHj119/9fX1XbFiRWxsrBAiICDAzs5u8eLFu3fvPnPmzNy5c/OcXEtLy9zcvHz58m82adasWePGjfPz8wsMDPzpp5+2b9+ep8KyZctSUlJmzZq1evXqDRs2nD17Vq1WV6xYMS4uLiQkZN68eQEBAevWrYuIiCiovOj3R61W+/j4pKWlyY/do0aNaty48axZs8aPHz9z5szMzExDQ8NXr149fPjw+PHjW7ZsGThw4OzZs9Vqde7zREVF1axZc+fOnf37989zCQMDAwsLCwMDgyI2KTs7293dffbs2UlJSd27d1+2bFnRuyOEOHHixMWLF11cXLS0tDIyMnr06DF27NgFCxaEhIR4eXlJfw3S0tIGDhz4/fffe3t7f/PNNy4uLmlpafIZVCrVwYMHt23b5uHhUbt27fT0dF9f3wULFgQHBw8cONDFxeWvv/766aefdHV1hw4dmjsCFd7f3GN6L1++1NLSatu27fv3903MXQEAAPiUjBo16saNG3Pnzm3YsGHuZawsLS3d3d2FECqVytTUNDExUQhRs2bNmjVrGhoa9urVSwjh5OR07NixCRMmCCG6des2fPjwe/fu1ahRw9fX183N7eLFi0IIe3v7169f57mopqbmnj173mzM7du3z507J7951bp164SEhDx17O3tGzZsKITQ19c3MDBITEw0NjaW5kiMHDmyatWqlpaWWlpa9+7ds7a2Lqi88HsSGxs7YsQItVp94cIFafzBzs5O2tW+ffuWLVsKIUxMTLKzs1NTUytWrGhlZWVkZDRy5EghROfOnVeuXJmcnCyHsYiIiMDAQF9f3zfHSYQQNWrUOH36dOHtyU1bW/u7774TQowZM2bu3Lmenp7t27dv0KDBWw/08/NLTEx88uSJr6/vgAEDhBBhYWG6uro1a9YUQlSqVMnZ2Xnp0qXu7u7r16+vU6dOpUqVhBD//e9/TU1N5XShVqtnzJjh5OTUvHlzqSQ0NDQhIcHb21sIkZyc/OWXX8bFxRUyaaco/d22bduUKVPKlSv3Pv0tCHEFAADgE+Pt7R0dHe3i4pL7ZZs6depMnjx59erVf/31V2pqqkqlksq1tf/f856+vr48jCD91/GsrKykpKTHjx+7ubl99tlnxW1JVFSUkZGRPJTx5qtEQojvvvvu6dOnS5cu1dLS0tDQkBomTauQ/im97CRlpILKC1ejRo2AgACpO+vWrZs2bdqlS5d+++03TU3N6dOnR0REzJ8/X1pcS766PK9DerKXr5Kdnd23b99x48aV+IwgTU3N+fPnnzhx4vDhw0V5fB89enSeaTnnz58vW7as/LNhw4b+/v4PHjy4efOmnLWqVq0qxTBJcHBwQkKC/NafECIqKqp+/fr5/km9m2fPnl29elXKP7kVt78F4WUwAACAT4yenp403WLIkCFZWVlSYUJCQteuXW1tbb///vs3Z3sXQjpD7skJ0shMEY+9e/duenp6IceeP3/excVlyJAhkyZNyp2dPgQdHR1XV9euXbueOXNG6lFQUJCfn9+MGTP69etXlDNoa2u7ubn98MMPUVFRJd48DQ0NR0fH95nQn3vwShpO0dHRycnJuXv3bu5q8mIMTk5O2dnZ06ZNk3dlZWXlmYhS9D/uN2VlZXl7e3t6empoaLy59/37K4grAAAAnyIzM7N169Zdu3YtPDxcKlmxYkXFihXt7e2Le6rKlSuXK1du+fLl8sBLWFhYEY+tXbt2amqqNLIhhEhJSdm/f3+eOjNnzuzSpYv0bP1xVKhQQQihUqlSU1M9PDxGjx5drKGSsWPH2tnZDR8+vCgDO8X1+PHjDh06vNuxjRo1un//fnx8vPQzKSmpevXqlpaWderUOXv27J07d6Tyo0ePygnE2NjYz88vNDRU/ntSu3btkydPSi/+CSEuXLhw7949IUS+eaNw0hLG48ePl8Z8MjIy5DE92fv0V0JcAQAA+DTkWbCrWbNmCxculB+pX7x4cfny5YiIiJ07d0ZGRiYkJEhTDnJycuSHSJVKJW9L4SQnJ0cIMWbMmCNHjvTu3XvNmjVDhgx5c65ITk5Op06dQkND85Tb2Ni0atXK09NzypQpq1atGjp0aKdOnfJc9MWLFwcOHIiNjQ0ICMjMzHz48OHFixelIZ3cjZFaUlD55s2b7e3t83yLUJLnE4q3b98ODw93cHCwtbVNT0/PyckJDw+Pjo6WJtjcuHEjJiYmKysr3/uQk5OTk5Ojqanp7+9///79OXPmvHm5O3fuNG/e/NatW2/uku9V7qf2y5cvz549+9mzZ0KIsLCwL774QvoqS2RkpL29fb4LLks9evXqVZ7yQYMGVa5cWV5lYc+ePdOnTxdCDBkyxNDQsE+fPhs2bPDx8dm+fXv16tXl7rRp08bNzW3ixIkPHjwQQgwYMMDExKR3795Llizx8fEJDAxs3LixEEJfXz8mJubs2bMvXrwoSn9zcnLGjx9frVq169evHzlyZMeOHePGjdPU1Cyov++MuAIAAKB0Dx8+9Pb2PnfuXGBg4JMnT+RyV1fXwYMHS9vu7u56enp9+vRJT0/v27fvtWvX9PX1T5w4ce7cubNnzx49evT27dsbNmzIysry9fVNSEhYvHixEGLjxo0PHjyYOHHi6NGjL1265OXlJc9Nzy07Ozs+Pv758+dvtm3VqlUdO3bcuHHj+vXrZ8+ebWpqGhcXFxoampWV5ePjk56ePmPGjGvXrg0ZMqRJkyaNGzfeu3evsbGx9JgeEBAQHx+/YsWK9PT0bdu2Xb58Od/y2NjYpKSkjIyMPJ9KfP78+dq1ay9dunT79u3u3bu7u7s7Ozs7Ozv37NkzLCxMQ0OjSpUqI0eOXLVq1dy5c93d3U1NTX/77bfMzMy9e/c+fPhw/fr18fHx0urMAQEBp0+f3rlz55MnT9avX29iYlKzZs2AgIDZs2c/evQo90XT0tLi4+NzL70lk75W+eDBg/379x89elQq1NTU3LVrl62t7Xfffaerqztp0iSp/MWLFykpKdLayrmFh4dLIyELFiz43//+l3uXoaHhjh07rl+/7uzsPG7cuFatWklT8E1NTUNDQ8uUKePh4REREbFw4cJXr16tXLkyJSVl165dkZGRTZs2TUlJ6dmz5/79+8uVK7d161YrKytvb++zZ8/Kn5wfMWLEihUrLl++nHt6TCH9HT58+IYNGyZMmNCrV69evXq5uLhIGamg/r6zvwd9kpOT3/NEAAClMfY2Lu0m4L0kT+D/nT9txsbGgqeskpOenr5gwQJPT8/SbkhJmjx58vLly0u7FYrG6AoAAAA+AcHBwW5ubqXdipJ09OjRdu3alXYrlI6FjAEAAKB0Z8+e7d69u5mZWWk3pMTcvXvXxMTE1ta2tBuidMQVAAAAKJ38lcN/DOlrj3grXgYDAAAAoFDEFQAAAAAKxcpgAAAAHwQrgwHvj9EVAAAAAApFXAEAAACgUMQVAAAAAApFXAEAAACgUMQVAAAAAApFXAEAAACgUMQVAAAAAApFXAEAAACgUMQVAAAAAApFXAEAAACgUMQVAAAAAApFXAEAAACgUMQVAAAAAApFXAEAAACgUMQVAAAAAApFXAEAAMD/Z/bs2c7OztJ2QkKCtbX19evXS7dJJeXOnTtTp05t0aJFaTdEQXJycjZt2tS2bdtNmzaVdlvyQVwBAAAoBWFhYW3atClfvvzevXvlwlevXoWGhtapU2fixIk3b94srbbZ2to2b95c2i5btmzbtm0rVapUWo15/vz5+vXrzc3NLSwshg0bNmHChG7dunXu3Dn3fSu6KlWq6OjopKamvk+TYmJihg8f7uvrm6d8586dxv/XkiVLpMKcnJzZs2ePGzfO2dn51KlTcuXiludr586dX331lbGxcefOnfv27du0adN58+ZlZmYWqztaWlotWrQobiK9detWseqLAu7bW/urXdzLAAAA4P317du3a9eu1tbWI0eOPHbsWK1atYQQenp6/fr1O378+LRp06pWrVpabXNycpK39fX1fXx8SqslQojy5csPHjx4+/btKSkpv/76q1S4YsUKZ2fn4ODgHj16FOtshoaGlpaW79OeJ0+eXLlyZffu3fXq1cuzKzw8fOHChdJ2nz59pI1Zs2YJIXx9fVNTU5s2bbpr167PP//8Hcrz1b1796ioqFu3bm3fvl1PT+/cuXNdunSJj49ftWpVsTplaWlpaGhY9PpxcXEhISELFiwo+iEF3be39pfRFQAAgNJhYGDw+eefa2trDxw48OXLl3J5mTJlypQpU4oNUyA9Pb3cP8eOHWtqarp27dp3OJWm5ns9AFepUqVv377m5uZ5yo8cOdKyZcuR/5epqakQIi4ubtWqVf369RNCGBkZtWrVSnrEL255IXR1deXtZs2aOTg4bNu2LSMjo7j9KvptSUlJGTp0aFZWVrHOn+99K0p/iSsAAAClpkKFCmvXro2JiRk7dmy+FZYuXTp9+vQRI0Z06dLl8ePHarV67969nTt33rRp08qVK2vVqtWsWbP79+8fO3bM1tbWyspqx44d0oFqtXrFihXTp09v06bNiBEj3nz9KSsrq1GjRqtXr85TfufOnUmTJvXv318IkZmZGRIS8tVXX126dKmIl/7zzz/nzp379ddfP3jwoGvXrubm5osXL87IyBg1alS1atW6deuWnp4eHR3t4OBgbGzs5+cnXXTJkiV2dnYxMTFFvG8qlUpDQ0N+Uo+OjnZ1dfX09Gzbtm1QUJAQ4v79+x4eHo6OjlFRUW3atLG0tNywYUOek2RkZHTo0KFz586bN2/OsysiIsLKyurGjRsFNUBHRydPiZeXl4eHR7du3U6ePCkXHjx4MDs7+4svvpB+WltbHzx4MCcnp7jlRbwtQggNDQ09PT0p7sbFxU2YMGHmzJkdOnTw8vKS69y5c2f8+PETJkxo3br1vn378pxh3759VatWXbhw4e3bt4UQkZGRHh4eLi4uzZs3379/vxBi8+bNT58+PXPmzMSJE+/cufM+960o/SWuAAAAlKaWLVv++OOPO3bskJ/dZYcPH/bz81u8eHFAQEBSUlJwcLBKpapUqdKFCxeOHDliY2Nz7Nixly9fjhkz5tGjR0eOHOnVq5f0ao0QIiAgwM7ObvHixbt37z5z5szcuXPznFxLS8vc3Lx8+fJvNikmJiY9PV0I8fr1ayMjI2mWQtEvnZSUJBUGBQVNnjx50aJFy5cvHz169LFjx65cubJ9+/Y6depInZWnvFtZWU2dOrWQt55yU6vVPj4+aWlpEydOlEpGjRrVuHHjWbNmjR8/fubMmZmZmYaGhq9evXr48OHx48e3bNkycODA2bNnq9Xq3OeJioqqWbPmzp07pWyWm4GBgYWFhYGBQVHaI4TIzs52d3efPXt2UlJS9+7dly1bJl/C0NBQjlXGxsbp6emPHj0qbnkRm3HixImLFy+6uLhoaWllZGT06NFj7NixCxYsCAkJ8fLyku55WlrawIEDv//+e29v72+++cbFxSUtLU0+g0qlOnjw4LZt2zw8PGrXrp2enu7r67tgwYLg4OCBAwe6uLjExcWNGDGiXr16LVq08PLykl5ifOf7VpT+MncFAACglI0aNerGjRtz585t2LBh7kWrLC0t3d3dhRAqlcrU1DQxMVFLS8vBwaFcuXLffPPN119/LYRwdHSMj48fNGiQEOLbb79dvXp1Zmamrq6ur6+vm5vbxYsXhRD29vavX7/Oc1FNTc09e/a82ZhatWpZW1tHRkYKIcqWLfvVV19J5UW8dLVq1WxsbE6ePPnf//5XCNG/f/958+Z17Nixfv36Qoi6devGxsYKIZo0adK4ceOQkJCGDRsKIQ4ePPjWGTKxsbEjRoxQq9UXLlyQxg3s7OykXe3bt2/ZsqUQwsTEJDs7OzU1tWLFilZWVkZGRiNHjhRCdO7ceeXKlcnJyXI8i4iICAwM9PX1fXOcRAhRo0aN06dPF96e3LS1tb/77jshxJgxY+bOnevp6dm+ffsGDRqkpKTkDoTSoEdaWlpxy9/aAD8/v8TExCdPnvj6+g4YMEAIERYWpqurW7NmTSFEpUqVnJ2dly5d6u7uvn79+jp16khrJ/z3v/81NTWV04VarZ4xY4aTk5O80EJoaGhCQoK3t7cQIjk5+csvv4yLiytk8k9x71tR+ktcAQAAKH3e3t7R0dEuLi65XyWqU6fO5MmTV69e/ddff6WmpqpUKqlcW/v/PcLp6+vLgwbS015WVlZaWtrjx4/d3Nw+++yzd2iMlpZWvttFubSurm6eOkKI3NXkOQ+urq5TpkyZM2dOTk6Orq7uW6d616hRIyAgQLrKunXrpk2bdunSpd9++01TU3P69OkRERHz58+XFsWSbpSmpqY8H0N6IpczW3Z2dt++fceNG1fic4Q0NTXnz59/4sSJw4cPN2jQwMTEJPc6Xa9evRJCGBsbF7f8rdcdPXp0nuk958+fL1u2rPyzYcOG/v7+Dx48uHnzppwQqlatKsU5SXBwcEJCwuzZs+WSqKio+vXry6NYJa4o/eVlMAAAgNKnp6cnTa4YMmSI/ECfkJDQtWtXW1vb77///s253YWQzpB7CkFiYmKJtrcE9OjRQ1dXd/PmzTt37izWAl86Ojqurq5du3Y9c+aM1MegoCA/P78ZM2ZIk7bfSltb283N7YcffoiKinrH1hdMQ0PD0dFRSkr/+c9/nj9/Lqe1Z8+eGRsbV6pUqbjl79aShIQEeVs6iY6OTk5Ozt27d3NXk5d5cHJyys7OnjZtmrwrKysrz0SUkv2LVJT+ElcAAAAUwczMbN26ddeuXQsPD5dKVqxYUbFiRXt7++KeqnLlyuXKlVu+fLn8IBgWFlaSbS0Jurq6gwYNWr169fHjx9u0aVPcwytUqCCEUKlUqampHh4eo0ePLtZQydixY+3s7IYPH/7ma3Lv7/Hjxx06dBBCdO/eXaVSyZ/QiY6O7tChg5aWVnHL36ENjRo1un//fnx8vPQzKSmpevXqlpaWderUOXv2rDxF/ujRo3ICkRY/CA0Nlf8G1q5d++TJk9IrhUKICxcu3Lt3TwihoaHxDk16U1H6S1wBAAAoNXkW7GrWrNnChQvlB+gXL15cvnw5IiJi586dkZGRCQkJ0sSAnJwc+cUwlUolb0vhRFpYacyYMUeOHOndu/eaNWuGDBlibW2d59I5OTmdOnUKDQ0tvIXS2eTFmopy6Tx15H9K1XKv+zRs2LC7d++amZlJ749t3rzZ3t7+ypUrbzYjz6cPb9++HR4e7uDgYGtrm56enpOTEx4eHh0dLS1tfOPGjZiYmKysrIKal5OTo6mp6e/vf//+/Tlz5rx5uTt37jRv3ryQLyHm7qMQ4vLly7Nnz3727JkQIiws7IsvvpC+LlK1atX+/fvv3r1bCJGSknL69OmpU6e+Q3lkZKS9vX2+CzdLd0Z6jSq3QYMGVa5cWV6/Yc+ePdOnTxdCDBkyxNDQsE+fPhs2bPDx8dm+fXv16tXl29KmTRs3N7eJEyc+ePBACDFgwAATE5PevXsvWbLEx8cnMDCwcePGQgh9ff27d+/++eefeT4uWdz7VlB/c/s7u8yYMaOgkwIAAOAdLFq0SBT8lPXw4cPg4OCNGzcaGxubm5vLMzfs7Oz+/PPP1q1bGxgYVK9efdeuXaGhoV999ZWFhcWhQ4d69+7922+/7d69OyMjw8bGJjo62s/P78GDB1ZWVnp6el5eXtLbTU2aNGnRokVaWtqBAweuXLkydOjQrl275mlAVlbWsmXLbGxsHBwc8uw6duzY06dP+/Xr9+LFC29v799//z0nJ6dx48YbNmx466WNjY1/+eWX6OjoihUrmpub+/r6/v777yqVysbG5uDBgxs2bHj69KmNjY30blu5cuUuX748YsQI6ZuYp06dOnfuXGJiYpcuXeTGPH/+PCwsLCQkJDEx8fTp08ePHw8NDV21alWnTp18fX0NDAwMDQ1TUlLWrl179+7dqVOnhoeHq1SqRo0a+fr6xsTEVK5c2dTU1MfH5+bNm1paWtra2kFBQbdv365ataqdnd2BAwf27NmTlpZWp04dIyOj3H86gYGBPXr0qFatWp6bk5KSsmnTpu3bt6emppqZmdWoUUMI8eTJk8WLF3t7e584ccLBwcHFxUWu36ZNm127dp06dWr37t1z5syRlhYobnlsbOymTZuioqKkBQxk4eHhq1atSkxMTE9Pr1atWu7XqMqUKdO2bdv169fv27fv5MmTTZs2HTx4sBDCwMDgyy+/PHLkyI4dO4yMjJYsWSKECAoK2rdvX1ZWlrW1tb6+flhY2JEjRywsLKytrVu0aPH777/v27dPQ0PD29tbmg1lbGwcFBQUExPj6uqa+4Mtxb1vhdwH2d/jOMnJyQIAAAAlR5ox/Ck+Zc2aNSsmJubjvD/m5uYmfSlFkp6evmDBAk9Pz49w6U/O5MmTly9fXtqt+Nh4GQwAAAD/n5ycnEIWqy1BkZGRdevWzV0SHBzs5ub2ES79yTl69Gi7du1KuxWlgIWMAQAAIIQQd+7cOXLkiLu7+9OnT4cNG/ZBrzVlyhR9ff2bN28GBwfLhWfPnu3evbuZmdkHvfSn6O7duyYmJra2tqXdkFJAXAEAAIAQQsTFxS1cuPDMmTNdu3Zt1qzZB73W5cuXk5OT/f39c38lUP46IfKQvvb478TcFQAAgA/i0527AigHc1cAAAAAKBRxBQAAAIBCEVcAAAAAKBRxBQAAAIBCEVcAAAAAKBRxBQAAAIBCEVcAAAAAKBRxBQAAAIBCEVcAAAAAKBRxBQAAAIBCEVcAAAAAKBRxBQAAAIBCEVcAAAAAKBRxBQAAAIBCEVcAAAAAKBRxBQAAAIBCEVcAAAAAKBRxBQAAAIBCEVcAAAAAKBRxBQAAAIBCEVcAAAAAKBRxBQDX1YnKAAAYHklEQVQAAIBCEVcAAAAAKBRxBQAAAIBCEVcAAADwAV2+fLnola9evTpo0CDj/8vLyyvfaklJSTNmzKhQoYJUrWfPnm8986NHj8aPH9++ffvWrVvXqlVr9OjRL1++LPwQLy8vCwuLTp06PX/+vOhdeAdF7PW/E3EFAAAAH8qTJ0+cnJwSEhKKWN/W1nb9+vXm5uaFVzMxMVm0aFFRUork/v37rVu3Xrdu3eDBg6dMmfLs2bONGzcGBwcXcsiLFy/mz5//4sWL8+fPb9y4sYgXejdF7PW/E3EFAAAAH4qfn19qampAQEDRD9HQ0DA2Ni5KzfLlyxfxnD/++OPTp0+FEHp6etbW1vb29l999VXHjh0LOeSzzz6zsLCQtj///PMiXuidFb3X/zbapd0AAAAA/DOlpKSsXbtWCLFmzZpJkyYZGhoW8UANDY0SrCaE+OOPP6QNlUplZWV19OjRtx6iqam5d+/eLVu21K9fv0OHDkW80Psoenf+VRhdAQAAwAcRFBT04sULIURKSsq6detKsSUqlUraUKvVRT/KwsJi8uTJhQ/C4EMjrgAAAKDkZWRkBAcHa2r+/bTp7++flZWVb02VSrVy5comTZpUqVKlefPmhQx9HDx4sGPHjmZmZvXr1//ll1+K0gwvLy9jY+O4uDjpp7u7u6mpqRDi5s2brVq1kme3P3r06MGDB/369TMzMxs1atTDhw+HDh0q792+fXvuc+7du7djx47t27e3sbEZOXLkkydPpPIrV640b95cPurJkyceHh5169atVq1ajx495DYUt9d5xMXFtWnTxtLS8ueffy7iIZ804goAAABK3vr169u0aSMPTcTHx2/bti3fmq6urjNnzoyNjf3ll198fHy8vLxiY2PfrLZ69ep+/fpduHDB1dU1LCzs7t27mzZtemszhg0bduPGjWrVqkk/Fy5cePXqVSGEjY1N7sf9J0+efPvttwcOHEhLS9u8eXO1atVWrVolZ63cPD09nZ2da9SocejQoZCQkM2bN7dv3/7Zs2dCCDs7uxkzZsg1nZ2dGzVq1K5du/T09OPHjw8dOvQdev2mn3/++erVq6mpqfPnz4+Pjy/KIZ804goAAABKWHZ2tp+f39ixY0eNGiUXrlix4s2aO3bsCA8PF0J8++23vXr1aty48aZNm/T19fNUi4uLmzVrllqtrlSp0uzZs62trb28vBo3bvzWlpQrV87S0lJb++8J2yYmJpaWltJ22bJl5WozZ8709vYeP368hoaGo6OjlpaWjo5O7gqSQ4cOLVu2TAgxYsQIIUSjRo3Mzc3j4uIWLVokVcg9XX7ZsmV9+/aVA8yVK1fkdFHEXufLyMhI2tDV1S3iIZ804goAAABK2NatW+vWrfvFF1+0aNGiYcOGUmFkZOShQ4fy1JTntMjZw8jIqGrVqnmqbdmy5dWrV0KIRo0aydmjdu3aJdXgli1btmvXbt68eXFxcQWNAgkh5DfQ/vOf/0gb0upku3fvln7mni5ft25dIcRnn30mlyQmJkobRex1vqZMmTJ06NCWLVsGBwdLL7b9s7EyGAAAAEqSWq329fVdunSp9HPUqFHu7u7Stq+vb/v27XNX/v3336WNwlclLmK1d9ayZUtp480RFZlarZab0adPHy0tLSFERkaGNFyTnp5uYGBQ+FXk2Tvv0x0jIyNvb+/iHvXpIq4AAACgJO3fv19PT69FixbSTycnp3nz5v35559CiDNnzvzxxx/29vbSrpcvX2ZkZEjbOjo6hZxT+mrKW6u9M3lySyFSU1MzMzOl7SVLltjY2BT3KtK6ZEXvNQRxBQAAACXL29v7yZMnDg4Ocsnr16/lbR8fn/Xr10vbn332ma6urpQB5Cf4fMmjEIVXe2d6enpvraOvr6+hoSFFjoiIiHeIK5Ki9xqCuSsAAAAoQWfOnElNTY2MjLyUy5UrV8qVKydV2LNnj7wEloaGRq1ataTtPOv85iFPUym82gdVpkwZuRmrV6/Ovev8+fPyp13equi9zldqaurEiRO7det24MCB4h77KSKuAAAAoMQsXrx47NixeT7QbmRk5ObmJm2rVKrcUy8GDx4sbezZs0d64r937969e/ekQnlYRq529epV6RE/MzPzzJkzeaoVS7E+GSnp37+/tPHHH3/Iq4FdunQpLCzszVWPpfPne5Ui9jpfixcvDg4OPnny5JAhQ5KSkorbhU8OcQUAAAAlY+vWradPn5aXAsvN1dVV3t60aVNERIS0PXjwYOmtqpiYmKFDh/r7+7u7u8tr9UonFELUr1/fxcVFCJGdnT1w4MBVq1b16tVLTggXL17ctGlTdnZ2QQ1LS0uTNlJTU+XC3NvSsmO5ZWdny0elpKRIGyNHjmzSpIm0vWjRovr16zs6Oo4aNWrOnDlS4cuXL+UzSEfJx+a+YhF7na/k5GRpIzMzU27hP5iW9K/cX7QBAADA+5P+6/u/5Cnr9evXkyZNWrhwoUql+v333xMSEmrXrm1oaCjt3bhxY0hIyM2bN6WfKpVq3759+vr6dnZ2Ojo6Tk5Oqamp8fHxt27dUqvVv/zyy7lz5ywsLLp06dK9e/datWpVqFBBCNGuXTtDQ8P79+/fu3fv0aNHc+fOVavVGRkZ7du379evX506dSwsLPKM6gghbt68uWjRonPnzkk/o6Ojc3JymjRpEhUVNXPmzIcPH0rld+7csbCwsLCwkH7Gx8ePHz/+1q1b0s/Y2FgzM7PatWtra2s7OTlpaGg8fvw4IyPD0NDQ0dFx5cqV0oLC165d8/DwSEhIkI9q2rTpmDFjHjx4IJfY2dlVqlSp6L1+U926dc+fP5+RkTF16tROnTq975+c4v39JyqnNAAAAJQI6YuBPGUB74OXwQAAAAAoFHEFAAAAgEIRVwAAAAAoFHEFAAAAgEIRVwAAAAAoFHEFAAAAgEJpl3YD8E9m7G1c2k3AP1DyBJYEBQDg34LRFQAAAAAKRVwBAAAAoFDEFQAAAAAKRVwBAAAAoFDEFQAAAAAKRVwBAAAAoFDEFQAAAAAKRVwBAAAAoFDEFQAAAAAKRVwBAAAAoFDEFQAAAAAKRVwBAAAAoFDEFQAAAAAKRVwBAAAAoFDEFQAAAAAKRVwBAAAAoFDEFQAAAAAKRVwBAAAAoFDapd0AAAAAvKMffvihtJuADyL3n+yn9adc4q0lruADSp6QXNpNAADgH87Ly6u0m4ASNnHixDwlHh4epdKS4lq4cGGJn5OXwQAAAAAoFKMrAAAAgKKp1erSbkKpIa4AAAAAiqZSqUq7CaWGl8EAAAAAFMnLly+fPXv2Ma9IXAEAAAAUTV2AzMzMBQsWfPnll9WrV2/UqNHkyZOfPn1aUGW1Wj1+/Ph58+YVUiFfjx49qlatWnJyslqt7tKlS2RkZEE1P0TfiSsAAACAohUUD5YsWbJnz54FCxYcP348ICDg/v37Q4YMKSR4FH62ghgbGwcGBurr66vV6ufPn7/1/CWLuAIAAAAoWkHx4MaNGz169GjdunX16tUdHBy8vLwqVKggDYM0btz4+PHjUrVffvlFijFCiEePHvXu3bt+/fp9+vSJiYlRq9VxcXHW1tY///xz27ZtGzVq5OXltXr16m+++aZhw4bLli2TIoq7u3taWpqrq2tiYuLo0aM3b9780eIKU+0BAAAARSsoCfTp02fOnDmvX79u3ry5ra1ttWrVfv31V7l+nggh/Txy5Mi6devs7e2XLl3q4uJy7NgxtVqdnJz88uXLw4cPX7p0qWfPngMGDDh48GBsbGzbtm379OmjpaUlHR4UFGRvb+/t7f31119/oHDyJkZXAAAAAEUraHSle/fumzZtevXq1Y8//tigQQMnJ6dTp07JKSXf0Y9u3bo1bdpUR0dn8uTJf/3117Vr16RyFxcXtVrdoEEDIUS/fv2EEDVq1Chbtmx8fPyb4aeg9nyIvjO6AgAAAChaQQsZZ2Rk1K1bd9asWUKIFy9e7Ny5c9iwYeHh4fXr1xdCqNVq6UD5n2q12sLCQvqpo6NTqVKlv/76q2LFikKIsmXLylcxMDCQtjU1NXNycqRt6WzSPz/mwsqMrgAAAACKlu9QRnJycv369c+ePSv9NDQ0HDhwYPXq1W/cuKFWqzU1NbOysqRd8vx4IYS8nZ2dnZiYaGZmlmcoJt9teUNDQ6Og9nyg0RXiCgAAAPDpKVeuXPfu3WfMmLF169bIyMirV68uXbo0Pj6+WbNmQggrK6tt27alpaVdv359z5498lF79+59/PixEGLdunVWVlb16tUr1kXLlClz7969tLS0ku1LIXgZDAAAAFC0gl6+8vT0DAgICAwMjI+P19HRadiw4fr1683NzVUq1fTp0+fOnevg4FCvXr1+/fpdv35depWrSZMmY8aMefXqVeXKlVeuXClyvSomv+WV+3Wv3G+UqVSqnj17enp6Pnv2bNy4cR+n78QVAAAAQNEKes+qTJky48aNy5McpMr16tXbunVrnvLFixe/eWYzM7OYmBhpW0tLS94WQly8eFGqJheOHTt27NixhTSpxBFXAAAAAEX7aNlAgZi7AgAAAEChGF0BAAAAFO3fPLpCXAEAAAAU7WN+50RpiCsAAACfsIkTJ5Z2E/DBBQYGlnYTSo2G9K/k5OTSbQcAAMA/jLGxseApC3g/TLUHAAAAoFDEFQAAAAAKRVwBAAAAoFDEFQAAAAAKRVwBAAAAoFDEFQAAAAAKRVwBAAAAoFDEFQAAAAAKRVwBAAAAoFDEFQAAAAAKRVwBAAAAoFDEFQAAAAAKRVwBAAAAoFDEFQAAAAAKRVwBAAAAoFDEFQAAAAAKRVwBAAAAoFDEFQAAAAAKRVwBAAAAoFDEFQAAAAAKRVwBAAAAoFDEFQAAAAAKRVwBAAAAoFDEFQAAAAAKRVwBAAAAoFDEFQAAAAAKRVwBAAAAoFDEFQAAAAAKRVwBAAAAoFDEFQAAAAAKRVwBAAAAoFDEFQAAAAAKRVwBAAAAoFDEFQAAAAAKRVwBAAAAoFDEFQAAAAAKRVwBAAAAoFAFxhUzM7MVK1YIIfz9/StXrvwRmwSUpEuXLhkbG9+8ebO0GwIAAIBiKzCufP311xYWFkIIS0tLR0fHj9gkAAAAABBCCO2CdoSGhkobnTt37ty588dqDwAAAAD8rXgvg1WvXj0kJGTgwIHVqlX7/PPPf/755wcPHvTs2bNq1aq2trZ79uyRqvn7+3/99ddbtmxp2LBhlSpVOnbsGBsb6+/vb21tbWFhMXTo0NTUVCFEq1at+vbtK1/x1atXlpaWQUFBH7C7+OdKTU2dNGlSrVq1qlSp0rVr13zf/lKr1X5+fk2bNq1cubKFhUXv3r1jYmKkXc7OzhMmTJg1a9bnn39epUqV3r17x8XFSbuqV68eGBg4aNAgc3NzKyurSZMmZWZmfryOAQAA/IsVe6r99OnTmzdvfu7cud69e8+fP79z5849evQ4ceKEvb39iBEjkpOTpWq3b98OCAhYu3bt7t27Y2NjO3TocODAgc2bN69evfrw4cM+Pj5CiH79+h07diwpKUk65MCBA+np6U5OTiXYPfxL5OTk9OnTJzw8fPr06WvWrNHU1OzSpYucN2Q+Pj4//PCDs7Pzli1bfvrppxs3bkyYMEHeu3nz5j///HPXrl2//fZbdHT0lClT5F0//PCDra3tqVOnfv755w0bNgQGBn6kjgEAAPy7FTuutGrVauTIkVZWVhMnThRCtG3bduDAgXXq1Jk+ffrLly9v3bolVcvMzPTy8rK1tXVwcOjatevTp08DAgJsbGw6dOjQsWPHy5cvCyF69+4thNi1a5d0yNatW9u1a1ehQoUS6xz+NQ4cOHDhwoWAgIDhw4d37tx527Zt5cuXX758eZ5qd+/enTBhwtixY1u1ajV48OBRo0adP39epVJJew0NDYOCgurVq9ekSZPhw4cfPXo0JydH2uXo6Dhp0qQaNWo4OTm1adPm0KFDH7V7AAAA/1YFzl0piLW1tbRRvnx5IUT9+vWln0ZGRkKIlJSUfGuamJhUrVpVrnn37l0hRIUKFb755pvt27e7uLg8f/788OHDvAmGd3PmzBkDAwNHR8fs7GwhhIaGhqOj47Fjx/JUk95vTEpKiomJiYmJOXr0qEqlysrK0tXVFULUrVtXW/vv/0VUrFgxJycnMzPTwMBACGFjYyOfpGLFik+fPv04/QIAAPiXK3ZckZ7eZHp6evlW09XV1dLSemu1/v37Dxky5NGjR4cOHdLX1+/YsWNx2wMIIZKSktLT0ytVqpS7UF9fP0+1yMjISZMmXbhwoUyZMl988UW5cuWEEGq1WtorhRaJhoaGEEIeeMmzSy4HAADAB1XsuFKyOnbsWK5cuT179hw4cKBbt24FpRqgcEZGRpUrV5aXs5NIkUOWlZXVt29fU1PTY8eO2djY6OjoBAYGnj59+uO2FAAAAMVQynGlTJkyTk5OW7duvXHjxo4dO0q3Mfh0NW3adNWqVTo6OvIriNOmTdPR0WnUqJFc59GjRw8fPpw+fbqdnZ1UcurUKZFrdAUAAABKU8pxRQjRv3//X3/91dLSslmzZqXdFnyqvvvuuwYNGvTt23fq1KmWlpZ79+5ds2aNv79/7jrm5uYVK1Zcs2aNlZWVpqbmpk2b9u3bJ4TIyMh487UxAAAAKEGxVwYrcQ4ODsbGxn369Mnz6g5QdDo6Ojt37nR0dPT09BwwYMDFixeDgoL69++fu462tvbGjRs1NDR69+49bNiw58+fh4eHCyEuXrxYSq0GAADAW/ydEOTvpcgqVKiwaNEiV1fXD92CP/74o23btn/88UfNmjU/9LUAAAA+GmNjY5HfUxaAosvnZbDr168fO3YsOzvbysrqg1776tWrBw8eDA0N7dChA1kFAAAAQB75xJWQkJDQ0NBevXq1atXqg147LS3Nz8+vVq1ab37ODwAAAAAKfBkMAAAA74OXwYD3V/pT7QEAAAAgX8QVAAAAAApFXAEAAACgUMQVAAAAAApFXAEAAACgUMQVAAAAAAr193dXjI3LlW478pWcnFLaTchHOWPj0m5CPlL+TYskRkRotmhRtrRbkVf9+qqzZ1+UdisAAAD+URhdAQAAAKBQxBUAAAAACkVcAQAAAKBQxBUAAAAACkVcAQAAAKBQxBUAAAAACkVcAQAAAKBQxBUAAAAACkVcAQAAAKBQxBUAAAAACkVcAQAAAKBQxBUAAAAACkVcAQAAAKBQxBUAAAAACkVcAQAAAKBQxBUAAAAACkVcAQAAAKBQxBUAAAAACkVcAQAAAKBQxBUAAAAACkVcAQAAAKBQxBUAAAAACkVcAQAAAKBQxBUAAAAACkVcAQAAAKBQxBUAAAAACkVcAQAAAKBQxBUAAAAACkVcAQAAAKBQxBUAAAAACkVcAQAAAKBQxBUAAAAACkVcAQAAAKBQxBUAAAAACkVcAQAAAKBQxBUAAAAACkVcAQAAAKBQxBUAAAAACkVcAQAAAKBQxBUAAAAACkVcAQAAAKBQxBUAAAAACkVcAQAAAKBQxBUAAAAACkVcAQAAAKBQxBUAAAAACkVcAQAAAKBQxBUAAAAACkVcAQAAAKBQGn//+4fSbAQAAMA/0A9CCJGcnFzKzQA+ZYyuAAAAAFAo4goAAAAAhSKuAAAAAFAo4goAAAAAhSKuAAAAAFAo4goAAAAAhSKuAAAAAFAo4goAAAAAhSKuAAAAAFAo4goAAAAAhSKuAAAAAFAo4goAAAAAhSKuAAAAAFAo4goAAAAAhSKuAAAAAFAo4goAAAAAhSKuAAAAAFAo4goAAAAAhSKuAAAAAFAo4goAAAAAhSKuAAAAAFAo4goAAAAAhSKuAAAAAFAo4goAAAAAhSKuAAAAAFAo4goAAAAAhSKuAAAAAFAo4goAAAAAhSKuAAAAAFAo4goAAAAAhSKuAAAAAFAo4goAAAAAhSKuAAAAAFAo4goAAAAAhSKuAAAAAFAo4goAAAAAhSKuAAAAAFAo4goAAAAAhSKuAAAAAFAo4goAAAAAhSKuAAAAAFAo4goAAAAAhSKuAAAAAFAo4goAAAAAhSKuAAAAAFAo4goAAAAAhSKuAAAAAFAo4goAAAAAhSKuAAAAAFAojdJuAAAAwD9ZcnJyaTcB+IQxugIAAABAoTRI/AAAAACUidEVAAAAAApFXAEAAACgUMQVAAAAAAqiVqvlbe1SbAcAAAAA5KZWqzU0NO7du+fv75+amvp/ALnncrmFSMuHAAAAAElFTkSuQmCC;" vertex="1" parent="1">
          <mxGeometry x="60" y="-1070" width="1082" height="668" as="geometry" />
        </mxCell>
        <mxCell id="xFohhPVt6hkUlhmm95Wv-2" value="" style="ellipse;whiteSpace=wrap;html=1;fillColor=none;fontColor=#ffffff;strokeColor=#FF0000;strokeWidth=5;" vertex="1" parent="1">
          <mxGeometry x="870" y="-610" width="260" height="60" as="geometry" />
        </mxCell>
        <mxCell id="xFohhPVt6hkUlhmm95Wv-3" value="&lt;font style=&quot;font-size: 30px;&quot;&gt;SQL injection&lt;/font&gt;" style="text;html=1;align=center;verticalAlign=middle;whiteSpace=wrap;rounded=0;fontColor=light-dark(#ff0000, #ededed);" vertex="1" parent="1">
          <mxGeometry x="1160" y="-590" width="190" height="30" as="geometry" />
        </mxCell>
        <mxCell id="xFohhPVt6hkUlhmm95Wv-4" value="" style="ellipse;whiteSpace=wrap;html=1;fillColor=none;fontColor=#ffffff;strokeColor=#FF0000;strokeWidth=5;" vertex="1" parent="1">
          <mxGeometry x="860" y="-690" width="300" height="50" as="geometry" />
        </mxCell>
        <mxCell id="xFohhPVt6hkUlhmm95Wv-5" value="&lt;span style=&quot;font-size: 30px;&quot;&gt;High score&lt;/span&gt;" style="text;html=1;align=center;verticalAlign=middle;whiteSpace=wrap;rounded=0;fontColor=light-dark(#ff0000, #ededed);" vertex="1" parent="1">
          <mxGeometry x="1160" y="-680" width="190" height="30" as="geometry" />
        </mxCell>
      </root>
    </mxGraphModel>
  </diagram>
</mxfile>
